<?xml version="1.0" encoding="utf-8"?>
<!-- Generator: Adobe Illustrator 25.2.0, SVG Export Plug-In . SVG Version: 6.00 Build 0)  -->
<svg version="1.1" id="Layer_1" xmlns="http://www.w3.org/2000/svg" xmlns:xlink="http://www.w3.org/1999/xlink" x="0px" y="0px"
	 viewBox="0 0 269.8 277.1" style="enable-background:new 0 0 269.8 277.1;" xml:space="preserve">
<g>
	<path d="M22.3,254.9V123.3h31.1c0,1.1-0.1,2.3-0.1,3.4c0.1,50,40.6,90.5,90.6,90.6c3.3,0,6.6-0.2,9.9-0.5v38.1H22.3z"/>
	<path d="M50.7,126.1v0.8c0.1,51.5,41.7,93.1,93.2,93.2c2.5,0,4.8-0.1,7.3-0.3v32.5H24.9V126.1L50.7,126.1 M56.2,120.7H19.6v136.8
		h136.8v-43.7c-4.1,0.6-8.3,0.9-12.5,0.9c-48.6,0-88-39.4-88-88C55.9,124.8,56,122.7,56.2,120.7L56.2,120.7z"/>
	<path d="M112.4,99.7l57.3,57.3l25.6-25.6l34,34c-13.5,16.2-32.8,27.6-55.2,30.8c-4.2,0.6-8.3,0.9-12.5,0.9c-48.6,0-88-39.4-88-88
		c0-2,0-4,0.2-6c1.7-24.9,13.7-46.8,31.6-61.6L138,74.1"/>
	<polygon points="250.2,61.4 169.3,142.2 127.5,100.4 135.3,92.6 153.1,74.8 201.7,26.3 208.4,19.6 	"/>
</g>
</svg>
