<?xml version="1.0" encoding="utf-8"?>
<!-- Generator: Adobe Illustrator 25.2.0, SVG Export Plug-In . SVG Version: 6.00 Build 0)  -->
<svg version="1.1" id="Layer_1" xmlns="http://www.w3.org/2000/svg" xmlns:xlink="http://www.w3.org/1999/xlink" x="0px" y="0px"
	 viewBox="0 0 20 20" style="enable-background:new 0 0 20 20;" xml:space="preserve">
<g>
	<path d="M0.5,19.8V8.7h2.6c0,0.1,0,0.2,0,0.3c0,4.2,3.4,7.6,7.6,7.6c0.3,0,0.6,0,0.8,0v3.2H0.5z"/>
	<path d="M2.9,9L2.9,9c0,4.4,3.5,7.9,7.8,7.9c0.2,0,0.4,0,0.6,0v2.7H0.8V9L2.9,9 M3.4,8.5H0.3V20h11.5v-3.7
		c-0.3,0.1-0.7,0.1-1.1,0.1c-4.1,0-7.4-3.3-7.4-7.4C3.4,8.8,3.4,8.7,3.4,8.5L3.4,8.5z"/>
	<path d="M8.1,6.7l4.8,4.8l2.2-2.2l2.9,2.9c-1.1,1.4-2.8,2.3-4.6,2.6c-0.4,0.1-0.7,0.1-1.1,0.1c-4.1,0-7.4-3.3-7.4-7.4
		c0-0.2,0-0.3,0-0.5C5,4.9,6,3.1,7.5,1.8l2.7,2.7"/>
	<polygon points="19.7,3.5 12.9,10.3 9.4,6.8 10,6.1 11.5,4.6 15.6,0.6 16.2,0 	"/>
</g>
</svg>
