<?xml version="1.0" encoding="utf-8"?>
<!-- Generator: Adobe Illustrator 25.2.0, SVG Export Plug-In . SVG Version: 6.00 Build 0)  -->
<svg version="1.1" id="Layer_1" xmlns="http://www.w3.org/2000/svg" xmlns:xlink="http://www.w3.org/1999/xlink" x="0px" y="0px"
	 viewBox="0 0 20 20" style="enable-background:new 0 0 20 20;" xml:space="preserve">
<style type="text/css">
	.st0{fill:none;stroke:#FFFFFF;stroke-miterlimit:10;stroke-dasharray:1,1;}
</style>
<circle cx="4.4" cy="10" r="3.7"/>
<path d="M18.7,12.1l-6.9-2.8l0.4,7.8c-0.1,0-0.2,0-0.3,0c-2.3,0-4.3-1.1-5.6-2.7C8,13.6,9.1,11.9,9.1,10S7.9,6.4,6.3,5.7
	C7.6,4,9.7,2.9,11.9,2.9c3.9,0,7.1,3.2,7.1,7.1C19,10.8,18.9,11.5,18.7,12.1z"/>
<polygon points="13.2,11.2 13.7,18.6 15.7,15 19.7,14.2 "/>
<line class="st0" x1="4.4" y1="10" x2="12.9" y2="10"/>
</svg>
